<?xml version="1.0" encoding="UTF-8"?>
<svg version="1.1" viewBox="0 0 175 320" xmlns="http://www.w3.org/2000/svg">
 <defs>
  <clipPath id="a">
   <path d="m0 256h140v-256h-140v256z"/>
  </clipPath>
 </defs>
 <g transform="matrix(1.25,0,0,-1.25,0,320)">
  <g transform="matrix(.9375 0 0 .9375 4.375 8)">
   <g clip-path="url(#a)">
    <g transform="translate(70)">
     <path d="m0 0c-16.994 0-33.024 1.072-45.136 3.019-12.401 1.993-23.877 5.029-23.877 13.678v222.61c0 8.649 11.476 11.685 23.877 13.678 12.113 1.947 28.143 3.019 45.136 3.019s33.023-1.072 45.136-3.019c12.401-1.993 23.877-5.029 23.877-13.678v-222.61c0-8.649-11.476-11.685-23.877-13.678-12.112-1.947-28.142-3.019-45.136-3.019"/>
    </g>
    <g transform="translate(70 249.32)">
     <path d="m0 0c-34.426 0-62.334-4.485-62.334-10.018v-222.61c0-5.533 27.908-10.018 62.334-10.018s62.334 4.485 62.334 10.018v222.61c0 5.533-27.908 10.018-62.334 10.018" fill="#33322a"/>
    </g>
    <g transform="translate(74.267 240.36)">
     <path d="m0 0c0-2.357-1.91-4.267-4.267-4.267-2.356 0-4.267 1.91-4.267 4.267s1.911 4.267 4.267 4.267c2.357 0 4.267-1.91 4.267-4.267"/>
    </g>
    <path d="m126.21 35.241h-112.42v195.91h112.42v-195.91z" fill="#107d8f"/>
    <g transform="translate(126.21 35.241)">
     <path d="m0 0h-112.42v49.431l112.42 69.013v-118.44z" fill="#28a7ae"/>
    </g>
    <g transform="translate(126.21 35.241)">
     <path d="m0 0h-112.42v40.526l112.42 35.063v-75.589z" fill="#56c4bf"/>
    </g>
    <path d="m119.08 198.76h-100.18v15.583h100.18v-15.583z" fill="#87bec7"/>
    <path d="m118.48 220.75h-19.479v5.705h19.479v-5.705z" fill="#87bec7"/>
    <g transform="translate(71.932 39.22)">
     <path d="m0 0h-3.864c-0.829 0-1.5 0.672-1.5 1.5v3.864c0 0.829 0.671 1.5 1.5 1.5h3.864c0.828 0 1.5-0.671 1.5-1.5v-3.864c0-0.828-0.672-1.5-1.5-1.5" fill="#aae1df"/>
    </g>
    <g transform="translate(42.991 39.22)">
     <path d="m0 0h-3.864c-0.829 0-1.5 0.672-1.5 1.5v3.864c0 0.829 0.671 1.5 1.5 1.5h3.864c0.828 0 1.5-0.671 1.5-1.5v-3.864c0-0.828-0.672-1.5-1.5-1.5" fill="#aae1df"/>
    </g>
    <g transform="translate(100.87 39.22)">
     <path d="m0 0h-3.864c-0.829 0-1.5 0.672-1.5 1.5v3.864c0 0.829 0.671 1.5 1.5 1.5h3.864c0.828 0 1.5-0.671 1.5-1.5v-3.864c0-0.828-0.672-1.5-1.5-1.5" fill="#aae1df"/>
    </g>
    <g transform="translate(76.505 62.503)">
     <path d="m0 0c0-3.535-2.866-6.4-6.4-6.4-3.535 0-6.401 2.865-6.401 6.4s2.866 6.4 6.401 6.4c3.534 0 6.4-2.865 6.4-6.4" fill="#fff"/>
    </g>
    <g transform="translate(34.34 56.937)">
     <path d="m0 0h-7.131c-1.105 0-2 0.895-2 2v7.131c0 1.105 0.895 2 2 2h7.131c1.105 0 2-0.895 2-2v-7.131c0-1.105-0.895-2-2-2" fill="#34a853"/>
    </g>
    <g transform="translate(54.005 56.937)">
     <path d="m0 0h-7.131c-1.105 0-2 0.895-2 2v7.131c0 1.105 0.895 2 2 2h7.131c1.105 0 2-0.895 2-2v-7.131c0-1.105-0.895-2-2-2" fill="#4285f4"/>
    </g>
    <g transform="translate(93.335 56.937)">
     <path d="m0 0h-7.131c-1.105 0-2 0.895-2 2v7.131c0 1.105 0.895 2 2 2h7.131c1.105 0 2-0.895 2-2v-7.131c0-1.105-0.895-2-2-2" fill="#fbbc05"/>
    </g>
    <g transform="translate(113 56.937)">
     <path d="m0 0h-7.131c-1.105 0-2 0.895-2 2v7.131c0 1.105 0.895 2 2 2h7.131c1.105 0 2-0.895 2-2v-7.131c0-1.105-0.895-2-2-2" fill="#ea4335"/>
    </g>
    <g transform="translate(34.34 83.332)">
     <path d="m0 0h-7.131c-1.105 0-2 0.895-2 2v7.131c0 1.105 0.895 2 2 2h7.131c1.105 0 2-0.895 2-2v-7.131c0-1.105-0.895-2-2-2" fill="#fff"/>
    </g>
    <g transform="translate(54.005 83.332)">
     <path d="m0 0h-7.131c-1.105 0-2 0.895-2 2v7.131c0 1.105 0.895 2 2 2h7.131c1.105 0 2-0.895 2-2v-7.131c0-1.105-0.895-2-2-2" fill="#ea4335"/>
    </g>
    <g transform="translate(93.335 83.332)">
     <path d="m0 0h-7.131c-1.105 0-2 0.895-2 2v7.131c0 1.105 0.895 2 2 2h7.131c1.105 0 2-0.895 2-2v-7.131c0-1.105-0.895-2-2-2" fill="#4285f4"/>
    </g>
    <g transform="translate(73.67 83.332)">
     <path d="m0 0h-7.131c-1.105 0-2 0.895-2 2v7.131c0 1.105 0.895 2 2 2h7.131c1.105 0 2-0.895 2-2v-7.131c0-1.105-0.895-2-2-2" fill="#fbbc05"/>
    </g>
    <g transform="translate(113 83.332)">
     <path d="m0 0h-7.131c-1.105 0-2 0.895-2 2v7.131c0 1.105 0.895 2 2 2h7.131c1.105 0 2-0.895 2-2v-7.131c0-1.105-0.895-2-2-2" fill="#34a853"/>
    </g>
    <g transform="translate(34.34 106.71)">
     <path d="m0 0h-7.131c-1.105 0-2 0.895-2 2v7.131c0 1.105 0.895 2 2 2h7.131c1.105 0 2-0.895 2-2v-7.131c0-1.105-0.895-2-2-2" fill="#4285f4"/>
    </g>
    <g transform="translate(54.005 106.71)">
     <path d="m0 0h-7.131c-1.105 0-2 0.895-2 2v7.131c0 1.105 0.895 2 2 2h7.131c1.105 0 2-0.895 2-2v-7.131c0-1.105-0.895-2-2-2" fill="#fbbc05"/>
    </g>
    <g transform="translate(93.335 106.71)">
     <path d="m0 0h-7.131c-1.105 0-2 0.895-2 2v7.131c0 1.105 0.895 2 2 2h7.131c1.105 0 2-0.895 2-2v-7.131c0-1.105-0.895-2-2-2" fill="#ea4335"/>
    </g>
    <g transform="translate(73.67 106.71)">
     <path d="m0 0h-7.131c-1.105 0-2 0.895-2 2v7.131c0 1.105 0.895 2 2 2h7.131c1.105 0 2-0.895 2-2v-7.131c0-1.105-0.895-2-2-2" fill="#fff"/>
    </g>
    <g transform="translate(113 106.71)">
     <path d="m0 0h-7.131c-1.105 0-2 0.895-2 2v7.131c0 1.105 0.895 2 2 2h7.131c1.105 0 2-0.895 2-2v-7.131c0-1.105-0.895-2-2-2" fill="#fff"/>
    </g>
    <g transform="translate(34.34 130.08)">
     <path d="m0 0h-7.131c-1.105 0-2 0.895-2 2v7.131c0 1.105 0.895 2 2 2h7.131c1.105 0 2-0.895 2-2v-7.131c0-1.105-0.895-2-2-2" fill="#ea4335"/>
    </g>
    <g transform="translate(113 130.08)">
     <path d="m0 0h-7.131c-1.105 0-2 0.895-2 2v7.131c0 1.105 0.895 2 2 2h7.131c1.105 0 2-0.895 2-2v-7.131c0-1.105-0.895-2-2-2" fill="#fbbc05"/>
    </g>
    <g transform="translate(45.708 185.48)">
     <path d="m0 0c-0.553 0-1.002-0.449-1.002-1.002v-24.489c0-0.553 0.449-1.002 1.002-1.002s1.002 0.449 1.002 1.002v24.489c0 0.553-0.449 1.002-1.002 1.002" fill="#fff"/>
    </g>
    <g transform="translate(60.94 162.22)">
     <path d="m0 0c0-0.675-0.549-1.224-1.225-1.224h-6.678c-0.675 0-1.225 0.549-1.225 1.224v20.036c0 0.675 0.55 1.224 1.225 1.224h6.678c0.676 0 1.225-0.549 1.225-1.224v-20.036zm-1.225 23.264h-6.678c-1.78 0-3.228-1.449-3.228-3.228v-20.036c0-1.779 1.448-3.228 3.228-3.228h6.678c1.78 0 3.228 1.449 3.228 3.228v20.036c0 1.779-1.448 3.228-3.228 3.228" fill="#fff"/>
    </g>
    <g transform="translate(66.719 178.62)">
     <path d="m0 0c-0.553 0-1.002-0.449-1.002-1.002v-3.154c0-0.553 0.449-1.002 1.002-1.002s1.002 0.449 1.002 1.002v3.154c0 0.553-0.449 1.002-1.002 1.002" fill="#fff"/>
    </g>
    <g transform="translate(66.719 171.01)">
     <path d="m0 0c-0.553 0-1.002-0.449-1.002-1.002v-3.154c0-0.553 0.449-1.002 1.002-1.002s1.002 0.449 1.002 1.002v3.154c0 0.553-0.449 1.002-1.002 1.002" fill="#fff"/>
    </g>
    <g transform="translate(82.627 185.48)">
     <path d="m0 0c-0.553 0-1.002-0.449-1.002-1.002v-10.018c0-0.675-0.549-1.224-1.224-1.224h-6.679c-0.675 0-1.224 0.549-1.224 1.224v10.018c0 0.553-0.449 1.002-1.002 1.002s-1.002-0.449-1.002-1.002v-10.018c0-1.78 1.448-3.229 3.228-3.229h6.679c0.434 0 0.846 0.089 1.224 0.245v-11.487c0-0.553 0.449-1.002 1.002-1.002s1.002 0.449 1.002 1.002v24.489c0 0.553-0.449 1.002-1.002 1.002" fill="#fff"/>
    </g>
    <g transform="translate(97.858 162.22)">
     <path d="m0 0c0-0.675-0.549-1.224-1.225-1.224h-6.678c-0.675 0-1.225 0.549-1.225 1.224v20.036c0 0.675 0.55 1.224 1.225 1.224h6.678c0.676 0 1.225-0.549 1.225-1.224v-20.036zm-1.225 23.264h-6.678c-1.78 0-3.228-1.449-3.228-3.228v-20.036c0-1.779 1.448-3.228 3.228-3.228h6.678c1.78 0 3.228 1.449 3.228 3.228v20.036c0 1.779-1.448 3.228-3.228 3.228" fill="#fff"/>
    </g>
   </g>
  </g>
 </g>
</svg>
