<svg viewBox="0 0 48 48" xml:space="preserve" xmlns="http://www.w3.org/2000/svg"><path d="M34.945 28.107c-.589-1.23-1.517-2.334-2.78-3.312-1.264-.977-3.253-2.031-5.966-3.16-2.41-.994-4.079-1.795-5.005-2.401-.927-.607-1.593-1.251-1.997-1.934-.404-.683-.607-1.505-.607-2.465 0-1.399.506-2.524 1.517-3.375 1.012-.851 2.495-1.277 4.449-1.277 2.579 0 5.512.691 8.798 2.073l1.921-4.93c-2.727-1.206-5.465-1.937-8.212-2.205V0H22v5.182c-2.45.339-4.49 1.162-6.115 2.475-2.19 1.769-3.286 4.196-3.286 7.28 0 2.46.69 4.567 2.072 6.32 1.382 1.753 3.758 3.312 7.129 4.676 3.27 1.314 5.427 2.453 6.471 3.414 1.046.961 1.568 2.131 1.568 3.514 0 1.533-.569 2.754-1.707 3.664-1.138.912-2.902 1.365-5.296 1.365-1.635 0-3.4-.227-5.296-.682s-3.687-1.078-5.372-1.871v5.713c2.569 1.253 5.851 1.895 9.831 1.938V48h5.062v-5.471c2.051-.451 3.79-1.226 5.203-2.338 2.377-1.871 3.565-4.449 3.565-7.736.002-1.666-.294-3.117-.884-4.348z" fill="#0c3b2e" class="fill-000000"></path></svg>